<?xml version="1.0" standalone="no"?>
<svg viewBox="0 0 200 200" xmlns="http://www.w3.org/2000/svg">
  <path fill="#08BDBA" d="M33,-51C46.3,-42.9,62.8,-39.6,67.5,-30.5C72.1,-21.4,64.8,-6.6,61.1,7.7C57.4,22,57.3,35.8,52.2,49.5C47,63.2,36.8,76.8,24.5,77.8C12.2,78.8,-2,67.2,-18.2,62.3C-34.4,57.5,-52.5,59.3,-58,51.3C-63.4,43.2,-56.1,25.1,-53.8,10.6C-51.4,-3.9,-54,-14.9,-54.1,-28.8C-54.2,-42.8,-51.7,-59.7,-42.3,-69.6C-32.9,-79.4,-16.4,-82.1,-3.3,-77C9.9,-72,19.8,-59.1,33,-51Z" transform="translate(100 100)" />
</svg>
