<?xml version="1.0" standalone="no"?>
<svg viewBox="0 0 200 200" xmlns="http://www.w3.org/2000/svg">
  <path fill="#0F62FE" d="M41.3,-65C52.4,-57.1,59.6,-43.8,64,-30.4C68.3,-16.9,69.9,-3.3,64.2,6.5C58.5,16.2,45.5,22.2,38,35.5C30.5,48.7,28.4,69.2,20.8,71.9C13.2,74.7,0.1,59.6,-16.8,55.4C-33.6,51.3,-54.2,58,-58.6,51.6C-62.9,45.1,-51,25.4,-53,8C-55,-9.5,-70.9,-24.5,-70.3,-34.7C-69.7,-44.8,-52.6,-50.1,-38.1,-56.5C-23.7,-62.8,-11.8,-70.4,1.6,-72.9C15.1,-75.4,30.2,-72.9,41.3,-65Z" transform="translate(100 100)" />
</svg>
